<svg width="70.8009" height="66.2856" viewBox="0 0 70.8009 66.2856" fill="none" xmlns="http://www.w3.org/2000/svg"><path d="M40.3369 32.6224C40.6722 29.4671 41.0144 26.0963 41.7738 23.0033C43.4189 16.3933 46.7179 9.72477 52.0642 5.36066C55.6475 2.43564 59.75 0.976543 64.2448 0.29452C65.4555 0.110806 66.5812 -0.0313861 67.86 0.0515653C69.2159 0.13952 70.4576 1.09562 70.7148 2.48938C70.8199 4.71897 70.8019 6.98307 70.7848 9.21775C70.7708 11.1636 70.8579 13.1363 70.7228 15.0742C70.5257 17.9068 67.9241 17.6352 65.9759 18.0948C61.343 19.1878 59.8681 25.3609 59.1836 29.395C58.9315 30.8843 58.7654 32.3862 58.6873 33.8942L58.6823 34.7107C58.7154 34.8458 58.7754 35.1259 58.8184 35.243L59.3848 35.3271C59.8721 35.3231 60.3934 35.309 60.8767 35.3281C61.9844 35.236 66.0019 35.1549 67.0645 35.3381L67.6359 35.3461L68.4744 35.4271C68.9027 35.5502 69.1238 35.5952 69.5101 35.8044L69.8423 36.1015C70.3986 36.6489 70.7478 37.4444 70.7638 38.2228C70.8029 40.124 70.7879 42.0412 70.7858 43.9424L70.7918 54.1557L70.7969 60.3866C70.7969 61.5133 70.8249 62.688 70.7328 63.8137C70.6948 64.28 70.2505 64.9755 69.9273 65.3017C69.0658 66.1722 67.731 66.2162 66.5852 66.2452C64.8682 66.2883 63.1521 66.2783 61.436 66.2763L49.4326 66.2683C48.3139 66.2683 46.873 66.2262 45.7853 66.2652C39.9477 66.4754 40.0788 65.1025 40.1018 60.1054C40.1138 58.2573 40.1158 56.4091 40.1088 54.561C40.0858 48.4112 39.8947 41.2587 40.1829 35.195L40.1838 34.8618C40.2009 34.4475 40.2529 33.9722 40.2879 33.554C40.2659 33.2147 40.3029 32.9576 40.3369 32.6224Z" fill="currentColor"/><path d="M0.245172 33.1456C1.05798 18.8508 7.18117 2.76183 23.5791 0.386054C25.5349 0.102678 28.4304 -0.600157 29.9694 1.1065C30.8804 2.11663 30.7105 3.33218 30.708 4.63009C30.7016 8.01069 30.7581 11.4263 30.676 14.8071C30.5728 17.8321 28.1363 17.6668 25.8939 18.0972C20.8164 19.3879 19.6645 26.2222 18.9263 30.5947C18.7269 31.8368 18.5224 34.1332 18.6648 35.2769L19.6554 35.3359C20.303 35.2209 22.8763 35.2579 23.6371 35.2589C24.3725 35.2489 26.6036 35.1829 27.2173 35.344C27.6943 35.349 28.0266 35.3259 28.4907 35.449C28.948 35.5741 29.0366 35.5991 29.4415 35.8403C29.5255 35.9103 29.7671 36.1004 29.8259 36.1705C30.253 36.6408 30.347 36.8829 30.6207 37.4393C30.7565 38.1197 30.7064 39.5055 30.6959 40.255L30.7054 55.8787C30.7071 57.3456 30.7158 58.8846 30.7085 60.3465C30.6905 63.9537 31.198 66.1551 26.6862 66.2241C21.3719 66.3052 16.0841 66.2802 10.7759 66.2661L5.6048 66.2491C3.71913 66.2371 0.384854 66.5793 0.167719 63.8577C-0.0400098 61.253 0.0593571 58.5063 0.0541538 55.8797C0.00252177 50.7095 -0.0121914 45.5383 0.0100224 40.3671L0.0130272 39.9808C0.00862449 39.6476 0.0479494 39.1453 0.0635591 38.7981C0.0196318 37.8115 0.0236308 35.8523 0.157514 34.9227C0.153311 34.2293 0.144209 33.833 0.245172 33.1456Z" fill="currentColor"/></svg>
